<?xml version="1.0" encoding="utf-8"?>
<!-- Generator: Adobe Illustrator 19.1.0, SVG Export Plug-In . SVG Version: 6.00 Build 0)  -->
<svg version="1.1" id="Layer_1" xmlns="http://www.w3.org/2000/svg" xmlns:xlink="http://www.w3.org/1999/xlink" x="0px" y="0px"
	 viewBox="-693 736.8 112.4 28.2" style="enable-background:new -693 736.8 112.4 28.2;" xml:space="preserve">
<style type="text/css">
	.st0{enable-background:new    ;}
	.st1{fill:#FFFFFF;}
</style>
<g class="st0">
	<path class="st1" d="M-688.6,747.1h-1.8V740h-2.3v-1.5h6.5v1.5h-2.3V747.1z"/>
	<path class="st1" d="M-683.2,743.8v3.3h-1.8v-8.6h2.5c1.2,0,2,0.2,2.6,0.6s0.8,1.1,0.8,1.9c0,0.5-0.1,1-0.4,1.3s-0.7,0.7-1.2,0.9
		c1.3,1.9,2.1,3.2,2.5,3.7h-2l-2-3.3H-683.2z M-683.2,742.3h0.6c0.6,0,1-0.1,1.3-0.3s0.4-0.5,0.4-0.9c0-0.4-0.1-0.7-0.4-0.9
		s-0.7-0.3-1.3-0.3h-0.6V742.3z"/>
	<path class="st1" d="M-671.8,747.1l-0.6-2h-3.1l-0.6,2h-2l3-8.6h2.2l3,8.6H-671.8z M-672.9,743.5c-0.6-1.8-0.9-2.9-1-3.1
		s-0.1-0.4-0.2-0.6c-0.1,0.5-0.5,1.7-1.1,3.7H-672.9z"/>
	<path class="st1" d="M-661.2,747.1h-2.3l-3.7-6.5h-0.1c0.1,1.1,0.1,2,0.1,2.4v4h-1.6v-8.6h2.3l3.7,6.4h0c-0.1-1.1-0.1-1.9-0.1-2.4
		v-4.1h1.6V747.1z"/>
	<path class="st1" d="M-654,744.7c0,0.8-0.3,1.4-0.8,1.8s-1.3,0.7-2.3,0.7c-0.9,0-1.7-0.2-2.4-0.5V745c0.6,0.3,1.1,0.4,1.5,0.5
		s0.8,0.2,1.1,0.2c0.4,0,0.7-0.1,0.9-0.2s0.3-0.4,0.3-0.7c0-0.2,0-0.3-0.1-0.4s-0.2-0.3-0.4-0.4s-0.6-0.3-1.1-0.6
		c-0.5-0.2-0.9-0.5-1.2-0.7s-0.5-0.5-0.6-0.8s-0.2-0.7-0.2-1.1c0-0.8,0.3-1.4,0.8-1.8s1.2-0.7,2.1-0.7c0.4,0,0.9,0.1,1.3,0.2
		s0.8,0.3,1.3,0.4l-0.6,1.4c-0.5-0.2-0.8-0.3-1.1-0.4s-0.6-0.1-0.9-0.1c-0.3,0-0.6,0.1-0.8,0.2s-0.3,0.4-0.3,0.6
		c0,0.2,0,0.3,0.1,0.4s0.2,0.2,0.4,0.3s0.5,0.3,1.2,0.6c0.8,0.4,1.3,0.8,1.6,1.2S-654,744.1-654,744.7z"/>
	<path class="st1" d="M-646.5,741.2c0,0.9-0.3,1.6-0.9,2.1s-1.4,0.7-2.5,0.7h-0.8v3h-1.8v-8.6h2.7c1,0,1.8,0.2,2.4,0.7
		S-646.5,740.3-646.5,741.2z M-650.6,742.5h0.6c0.6,0,1-0.1,1.3-0.3s0.4-0.5,0.4-1c0-0.4-0.1-0.7-0.3-0.9s-0.6-0.3-1.1-0.3h-0.8
		V742.5z"/>
	<path class="st1" d="M-637.1,742.8c0,1.4-0.4,2.5-1.1,3.3s-1.7,1.1-3,1.1s-2.3-0.4-3-1.1s-1.1-1.9-1.1-3.3s0.4-2.5,1.1-3.3
		s1.7-1.1,3-1.1s2.3,0.4,3,1.1S-637.1,741.4-637.1,742.8z M-643.3,742.8c0,1,0.2,1.7,0.5,2.2s0.9,0.7,1.6,0.7c1.4,0,2.2-1,2.2-2.9
		c0-1.9-0.7-2.9-2.2-2.9c-0.7,0-1.3,0.2-1.6,0.7S-643.3,741.8-643.3,742.8z"/>
	<path class="st1" d="M-633.5,743.8v3.3h-1.8v-8.6h2.5c1.2,0,2,0.2,2.6,0.6s0.8,1.1,0.8,1.9c0,0.5-0.1,1-0.4,1.3s-0.7,0.7-1.2,0.9
		c1.3,1.9,2.1,3.2,2.5,3.7h-2l-2-3.3H-633.5z M-633.5,742.3h0.6c0.6,0,1-0.1,1.3-0.3s0.4-0.5,0.4-0.9c0-0.4-0.1-0.7-0.4-0.9
		s-0.7-0.3-1.3-0.3h-0.6V742.3z"/>
	<path class="st1" d="M-624.1,747.1h-1.8V740h-2.3v-1.5h6.5v1.5h-2.3V747.1z"/>
</g>
<g class="st0">
	<path class="st1" d="M-690.1,761.5h-1.8v-8.6h4.9v1.5h-3.1v2.2h2.9v1.5h-2.9V761.5z"/>
	<path class="st1" d="M-677.6,757.2c0,1.4-0.4,2.5-1.1,3.3s-1.7,1.1-3,1.1s-2.3-0.4-3-1.1s-1.1-1.9-1.1-3.3s0.4-2.5,1.1-3.3
		s1.7-1.1,3-1.1s2.3,0.4,3,1.1S-677.6,755.8-677.6,757.2z M-683.8,757.2c0,1,0.2,1.7,0.5,2.2s0.9,0.7,1.6,0.7c1.4,0,2.2-1,2.2-2.9
		c0-1.9-0.7-2.9-2.2-2.9c-0.7,0-1.3,0.2-1.6,0.7S-683.8,756.2-683.8,757.2z"/>
	<path class="st1" d="M-674,758.2v3.3h-1.8v-8.6h2.5c1.2,0,2,0.2,2.6,0.6s0.8,1.1,0.8,1.9c0,0.5-0.1,1-0.4,1.3s-0.7,0.7-1.2,0.9
		c1.3,1.9,2.1,3.2,2.5,3.7h-2l-2-3.3H-674z M-674,756.7h0.6c0.6,0,1-0.1,1.3-0.3s0.4-0.5,0.4-0.9c0-0.4-0.1-0.7-0.4-0.9
		s-0.7-0.3-1.3-0.3h-0.6V756.7z"/>
	<path class="st1" d="M-664.7,761.5v-8.6h1.8v7.1h3.5v1.5H-664.7z"/>
	<path class="st1" d="M-651,752.9v5.5c0,0.6-0.1,1.2-0.4,1.7s-0.7,0.8-1.2,1.1s-1.2,0.4-1.9,0.4c-1.1,0-2-0.3-2.6-0.8
		s-0.9-1.3-0.9-2.3v-5.5h1.8v5.2c0,0.7,0.1,1.1,0.4,1.5s0.7,0.5,1.3,0.5c0.6,0,1-0.2,1.3-0.5s0.4-0.8,0.4-1.5v-5.2H-651z"/>
	<path class="st1" d="M-642,761.5h-2.1l-2-3.2l-2,3.2h-1.9l2.8-4.4l-2.7-4.1h2l1.8,3.1l1.8-3.1h2l-2.7,4.2L-642,761.5z"/>
	<path class="st1" d="M-636,761.5h-4.9v-8.6h4.9v1.5h-3.1v1.9h2.9v1.5h-2.9v2.2h3.1V761.5z"/>
	<path class="st1" d="M-630.5,761.5l-2.1-6.7h-0.1c0.1,1.4,0.1,2.3,0.1,2.7v4h-1.6v-8.6h2.5l2,6.6h0l2.2-6.6h2.5v8.6h-1.7v-4.1
		c0-0.2,0-0.4,0-0.7s0-0.9,0.1-2h-0.1l-2.2,6.7H-630.5z"/>
	<path class="st1" d="M-622.9,752.9h2.7c1.2,0,2.1,0.2,2.6,0.5s0.8,0.9,0.8,1.6c0,0.5-0.1,0.9-0.4,1.3s-0.6,0.5-1,0.6v0.1
		c0.5,0.1,0.9,0.3,1.2,0.7s0.4,0.8,0.4,1.3c0,0.8-0.3,1.4-0.8,1.8s-1.3,0.7-2.3,0.7h-3.2V752.9z M-621,756.3h1.1
		c0.5,0,0.8-0.1,1.1-0.2s0.3-0.4,0.3-0.8c0-0.3-0.1-0.6-0.4-0.7s-0.6-0.2-1.1-0.2h-1V756.3z M-621,757.8v2.2h1.2
		c0.5,0,0.9-0.1,1.1-0.3s0.4-0.5,0.4-0.9c0-0.7-0.5-1.1-1.5-1.1H-621z"/>
	<path class="st1" d="M-607,757.2c0,1.4-0.4,2.5-1.1,3.3s-1.7,1.1-3,1.1s-2.3-0.4-3-1.1s-1.1-1.9-1.1-3.3s0.4-2.5,1.1-3.3
		s1.7-1.1,3-1.1s2.3,0.4,3,1.1S-607,755.8-607,757.2z M-613.3,757.2c0,1,0.2,1.7,0.5,2.2s0.9,0.7,1.6,0.7c1.4,0,2.2-1,2.2-2.9
		c0-1.9-0.7-2.9-2.2-2.9c-0.7,0-1.3,0.2-1.6,0.7S-613.3,756.2-613.3,757.2z"/>
	<path class="st1" d="M-598.3,752.9v5.5c0,0.6-0.1,1.2-0.4,1.7s-0.7,0.8-1.2,1.1s-1.2,0.4-1.9,0.4c-1.1,0-2-0.3-2.6-0.8
		s-0.9-1.3-0.9-2.3v-5.5h1.8v5.2c0,0.7,0.1,1.1,0.4,1.5s0.7,0.5,1.3,0.5c0.6,0,1-0.2,1.3-0.5s0.4-0.8,0.4-1.5v-5.2H-598.3z"/>
	<path class="st1" d="M-594.4,758.2v3.3h-1.8v-8.6h2.5c1.2,0,2,0.2,2.6,0.6s0.8,1.1,0.8,1.9c0,0.5-0.1,1-0.4,1.3s-0.7,0.7-1.2,0.9
		c1.3,1.9,2.1,3.2,2.5,3.7h-2l-2-3.3H-594.4z M-594.4,756.7h0.6c0.6,0,1-0.1,1.3-0.3s0.4-0.5,0.4-0.9c0-0.4-0.1-0.7-0.4-0.9
		s-0.7-0.3-1.3-0.3h-0.6V756.7z"/>
	<path class="st1" d="M-585,756.7h3.4v4.4c-0.6,0.2-1.1,0.3-1.6,0.4s-1,0.1-1.5,0.1c-1.3,0-2.3-0.4-3-1.1s-1-1.9-1-3.3
		c0-1.4,0.4-2.5,1.2-3.2s1.9-1.2,3.3-1.2c0.9,0,1.7,0.2,2.5,0.5l-0.6,1.5c-0.6-0.3-1.3-0.5-2-0.5c-0.8,0-1.4,0.3-1.9,0.8
		s-0.7,1.2-0.7,2.1c0,0.9,0.2,1.6,0.6,2.1s0.9,0.7,1.7,0.7c0.4,0,0.8,0,1.2-0.1v-1.8h-1.6V756.7z"/>
</g>
</svg>
